# xmcd CD database file
#
# Track frame offsets:
#	150
#	12067
#	21635
#	31412
#	43339
#	53097
#	62887
#	75560
#	88415
#	97830
#	106120
#	117862
#	130045
#	140240
#	153382
#	164897
#	175370
#	185847
#	199130
#	209600
#	222387
#	234127
#	244992
#
# Disc length: 3398 seconds
#
# Revision: 1
# Processed by: cddbd v1.5.2PL0 Copyright (c) Steve Scherf et al.
# Submitted via: CDex 1.51
#
DISCID=550d4417
DTITLE=Various Artist - VEE JAY, THE CHICAGO BLACK MUSIC(Disc4)
DYEAR=1997
DGENRE=Blues
TTITLE0=No More Doggin' - Roscoe Gordon
TTITLE1=Goin' Home - Roscoe Gordon
TTITLE2=Just A Little Bit - Roscoe Gordon
TTITLE3=Jelly, Jelly - Roscoe Gordon
TTITLE4=You Can make It If You Try - Gene Allison
TTITLE5=Reap What You Sow - Gene Allison
TTITLE6=Three Times Seven - Gene Allison
TTITLE7=Sittin' And Drinkin' - Christine Kittrell
TTITLE8=Mr. BIg Wheel - Christine Kittrell
TTITLE9=It's Nobody's Fault - Christine Kittrell
TTITLE10=I'm A Womon - Christine Kittrell
TTITLE11=I'm Pleading Just For You - Larry Birdsong
TTITLE12=My Darling - Larry Birdsong
TTITLE13=The Walk - Lue Cazz
TTITLE14=Your Picture - Lue Cazz
TTITLE15=So Tired - Chick Carbo
TTITLE16=I Don't Want To Lose Her - Chick Carbo
TTITLE17=Baby, Baby - Chick Carbo
TTITLE18=Pigtails And Blues Jeans
TTITLE19=Hattie Malatti - Lee Daiamond with The Upsetters
TTITLE20=Bald Head Baby - Lee Daiamond with The Upsetters
TTITLE21=Lonley Boy (I Need A Woman) - Willie Cobbs
TTITLE22=The Twist - Hank Ballard and The Midnighters
EXTD=YEAR: 1997
EXTT0=
EXTT1=
EXTT2=
EXTT3=
EXTT4=
EXTT5=
EXTT6=
EXTT7=
EXTT8=
EXTT9=
EXTT10=
EXTT11=
EXTT12=
EXTT13=
EXTT14=
EXTT15=
EXTT16=
EXTT17=
EXTT18=
EXTT19=
EXTT20=
EXTT21=
EXTT22=
PLAYORDER=
